<svg xmlns="http://www.w3.org/2000/svg" version="1.1" xmlns:xlink="http://www.w3.org/1999/xlink" xmlns:svgjs="http://svgjs.com/svgjs" width="1440" height="960" preserveAspectRatio="none" viewBox="0 0 1440 960">
    <g mask="url(&quot;#SvgjsMask1008&quot;)" fill="none">
        <rect width="1440" height="960" x="0" y="0" fill="url(#SvgjsLinearGradient1009)"></rect>
        <path d="M1512 960L0 960 L0 646.8Q-36.31 538.49, 72 502.17Q98.23 456.4, 144 482.63Q198.2 464.83, 216 519.04Q268.02 451.06, 336 503.09Q409.43 456.51, 456 529.94Q515.36 517.3, 528 576.66Q576.84 505.5, 648 554.34Q656.4 490.74, 720 499.14Q747.75 454.88, 792 482.63Q896.71 467.34, 912 572.05Q934.87 522.92, 984 545.79Q989.04 478.83, 1056 483.87Q1124.97 432.84, 1176 501.8Q1217.82 471.62, 1248 513.43Q1328.58 522.01, 1320 602.59Q1363.4 574, 1392 617.4Q1399.92 505.32, 1512 513.23z" fill="#182f5d"></path>
        <path d="M1536 960L0 960 L0 640.97Q35.82 604.79, 72 640.6Q175.39 623.99, 192 727.38Q244.87 708.25, 264 761.12Q288.43 713.55, 336 737.97Q354.67 684.64, 408 703.32Q422.79 598.11, 528 612.9Q595.59 560.49, 648 628.08Q715.72 575.8, 768 643.52Q823 626.52, 840 681.52Q915.47 636.99, 960 712.46Q974.25 654.71, 1032 668.95Q1040.45 605.4, 1104 613.85Q1175.97 565.83, 1224 637.8Q1315.1 656.9, 1296 748Q1292.38 624.38, 1416 620.76Q1470.28 555.04, 1536 609.32z" fill="#25467d"></path>
        <path d="M1512 960L0 960 L0 740.18Q86.65 754.83, 72 841.48Q138.93 788.41, 192 855.34Q195.53 786.88, 264 790.41Q277.25 731.66, 336 744.91Q363.06 699.97, 408 727.04Q461.34 708.38, 480 761.71Q533.37 743.08, 552 796.45Q623.14 747.6, 672 818.74Q721.14 795.88, 744 845.03Q759.21 740.24, 864 755.44Q884.09 703.53, 936 723.61Q1022.08 689.69, 1056 775.77Q1140.62 740.38, 1176 825Q1200.01 777, 1248 801.01Q1253.64 734.65, 1320 740.29Q1350.58 698.87, 1392 729.45Q1463.84 681.29, 1512 753.13z" fill="#356cb1"></path>
        <path d="M1536 960L0 960 L0 853.18Q98.62 831.8, 120 930.42Q190.15 880.57, 240 950.71Q318.53 909.25, 360 987.78Q393.1 900.88, 480 933.98Q548.01 881.99, 600 950Q670.09 900.09, 720 970.18Q745.92 876.1, 840 902.01Q893.03 835.04, 960 888.07Q1048.99 857.07, 1080 946.06Q1159.83 905.88, 1200 985.71Q1206.96 920.67, 1272 927.63Q1266.1 849.73, 1344 843.82Q1395.58 823.4, 1416 874.99Q1542.49 881.49, 1536 1007.98z" fill="white"></path>
    </g>
    <defs>
        <mask id="SvgjsMask1008">
            <rect width="1440" height="960" fill="#ffffff"></rect>
        </mask>
        <linearGradient x1="8.33%" y1="-12.5%" x2="91.67%" y2="112.5%" gradientUnits="userSpaceOnUse" id="SvgjsLinearGradient1009">
            <stop stop-color="#0e2a47" offset="0"></stop>
            <stop stop-color="#00459e" offset="1"></stop>
        </linearGradient>
    </defs>
</svg>